<?xml version="1.0" standalone="no"?>
<!DOCTYPE svg PUBLIC "-//W3C//DTD SVG 20010904//EN"
 "http://www.w3.org/TR/2001/REC-SVG-20010904/DTD/svg10.dtd">
<svg version="1.0" xmlns="http://www.w3.org/2000/svg"
 width="512.000000pt" height="512.000000pt" viewBox="0 0 512.000000 512.000000"
 preserveAspectRatio="xMidYMid meet">
<metadata>
Created by potrace 1.14, written by Peter Selinger 2001-2017
</metadata>
<g transform="translate(0.000000,512.000000) scale(0.100000,-0.100000)"
fill="#000000" stroke="none">
<path d="M2695 5110 c-22 -5 -58 -11 -80 -15 -22 -3 -62 -10 -90 -15 -27 -6
-61 -12 -75 -15 -14 -3 -45 -8 -70 -11 -25 -3 -47 -8 -50 -9 -3 -2 -24 -6 -46
-9 -22 -4 -51 -9 -64 -11 -14 -3 -38 -8 -55 -10 -16 -3 -82 -15 -145 -26 -63
-11 -130 -22 -148 -25 -66 -8 -117 -40 -145 -89 -10 -16 -125 -352 -256 -745
-131 -393 -241 -722 -244 -730 -3 -8 -29 -87 -57 -175 -28 -88 -55 -169 -60
-180 -5 -11 -72 -211 -150 -445 l-141 -425 -300 -300 c-316 -316 -379 -392
-438 -531 -56 -131 -75 -225 -75 -369 0 -71 3 -146 6 -165 35 -203 116 -364
258 -513 74 -79 201 -171 285 -207 60 -27 185 -70 185 -65 0 2 15 -1 32 -6 50
-15 252 -20 327 -9 145 23 299 85 418 170 32 22 193 175 359 340 l301 300
1349 450 c1431 478 1388 462 1419 535 7 17 39 158 70 315 31 157 58 292 60
300 49 233 51 261 25 311 -26 50 -66 73 -162 95 -10 2 -26 6 -35 8 -10 2 -92
21 -183 41 -91 19 -192 42 -225 50 -33 8 -134 31 -225 51 -91 20 -168 39 -172
42 -3 4 -9 36 -12 72 -4 36 -8 76 -10 90 -3 14 -7 55 -11 92 -3 37 -8 77 -10
90 -2 13 -6 54 -10 92 -4 38 -8 79 -10 90 -2 12 -6 48 -10 81 -29 274 -34 294
-83 335 -19 16 -53 32 -76 36 -74 12 -80 13 -141 19 -55 5 -93 9 -180 20 -16
2 -57 7 -90 10 -33 3 -74 8 -92 10 -18 3 -58 7 -90 10 -32 3 -69 7 -83 10 -14
2 -54 7 -90 10 -36 4 -66 7 -67 9 -3 3 -11 55 -18 121 -4 33 -8 71 -10 85 -2
14 -7 57 -10 95 -3 39 -8 81 -10 95 -6 37 -13 97 -20 165 -5 54 -9 92 -20 180
-2 17 -7 57 -11 90 -9 88 -25 125 -65 157 -40 33 -105 43 -174 28z m-61 -372
c3 -18 8 -64 11 -103 3 -38 8 -77 10 -85 2 -8 7 -51 11 -95 3 -44 8 -88 9 -97
2 -9 7 -48 10 -85 4 -37 8 -75 10 -83 2 -8 7 -49 10 -90 3 -41 8 -82 10 -90 3
-8 -230 -340 -526 -750 -292 -404 -592 -820 -667 -925 -75 -104 -160 -223
-190 -263 l-54 -74 -68 68 -68 67 422 1261 421 1261 55 12 c63 14 547 101 571
102 11 1 19 -10 23 -31z m431 -972 c40 -4 135 -14 190 -21 17 -2 59 -7 95 -10
36 -4 76 -9 90 -11 14 -2 52 -6 85 -10 33 -3 85 -8 115 -12 l55 -7 7 -55 c4
-30 9 -84 13 -120 3 -36 8 -78 10 -95 3 -16 7 -52 10 -80 3 -27 8 -69 10 -92
3 -24 7 -62 10 -85 10 -90 16 -144 20 -176 4 -31 0 -36 -78 -92 -45 -32 -100
-72 -122 -88 -22 -17 -238 -172 -480 -346 -242 -175 -447 -323 -455 -329 -8
-7 -71 -52 -140 -101 -69 -50 -262 -188 -428 -309 l-304 -219 -130 130 -130
130 388 539 c213 296 397 550 408 565 12 14 37 50 56 78 19 28 40 57 45 63 6
7 26 35 46 62 161 225 485 673 497 688 11 12 24 16 46 12 17 -3 49 -7 71 -9z
m1330 -1147 c204 -45 371 -83 373 -84 2 -2 -11 -72 -28 -156 -35 -169 -33
-158 -56 -282 -9 -48 -22 -94 -28 -101 -6 -8 -576 -203 -1267 -434 l-1255
-419 -68 67 -68 68 54 39 c46 35 542 392 732 529 155 111 273 196 725 523 356
256 480 341 495 337 12 -3 188 -42 391 -87z m-2980 -1209 l450 -450 -113 -112
-112 -113 -452 452 -453 453 110 110 c60 60 112 110 115 110 3 0 208 -202 455
-450z m-441 -464 l439 -440 -34 -28 c-54 -46 -145 -97 -212 -118 -351 -110
-699 64 -818 410 -18 53 -22 87 -22 185 -1 67 5 140 12 165 13 45 78 191 90
200 4 3 22 24 40 48 28 37 35 41 49 30 9 -7 214 -211 456 -452z"/>
</g>
</svg>
